<svg width="305" height="55" viewBox="0 0 305 55" fill="none" xmlns="http://www.w3.org/2000/svg">
<path fill-rule="evenodd" clip-rule="evenodd" d="M32.5 55C14.5507 55 0 42.6878 0 27.5C0 12.3122 14.5507 0 32.5 0C50.4493 0 65 12.3122 65 27.5C65 42.6878 50.4493 55 32.5 55ZM39 33H48.7551C52.3346 33 55.25 30.5376 55.25 27.5C55.25 24.4618 52.3421 22 48.7551 22H39V13.7457C39 10.7169 36.0898 8.25 32.5 8.25C28.9094 8.25 26 10.7105 26 13.7457V22H16.2449C12.6654 22 9.75 24.4624 9.75 27.5C9.75 30.5382 12.6578 33 16.2449 33H26V41.2543C26 44.2831 28.9101 46.75 32.5 46.75C36.0906 46.75 39 44.2895 39 41.2543V33Z" fill="#FF0F00"/>
<path d="M99.0625 30.3473C99.0625 31.6723 98.8417 32.8889 98.4 33.9973C97.9583 35.1056 97.3375 36.0598 96.5375 36.8598C95.7375 37.6598 94.775 38.2806 93.65 38.7223C92.525 39.1639 91.275 39.3848 89.9 39.3848H83.0125V21.3098H89.9C91.275 21.3098 92.525 21.5348 93.65 21.9848C94.775 22.4264 95.7375 23.0473 96.5375 23.8473C97.3375 24.6389 97.9583 25.5889 98.4 26.6973C98.8417 27.8056 99.0625 29.0223 99.0625 30.3473ZM95.6125 30.3473C95.6125 29.3556 95.4792 28.4681 95.2125 27.6848C94.9542 26.8931 94.575 26.2264 94.075 25.6848C93.5833 25.1348 92.9833 24.7139 92.275 24.4223C91.575 24.1306 90.7833 23.9848 89.9 23.9848H86.3875V36.7098H89.9C90.7833 36.7098 91.575 36.5639 92.275 36.2723C92.9833 35.9806 93.5833 35.5639 94.075 35.0223C94.575 34.4723 94.9542 33.8056 95.2125 33.0223C95.4792 32.2306 95.6125 31.3389 95.6125 30.3473ZM104.236 28.7848C104.636 28.0181 105.111 27.4181 105.661 26.9848C106.211 26.5431 106.861 26.3223 107.611 26.3223C108.203 26.3223 108.678 26.4514 109.036 26.7098L108.836 29.0223C108.795 29.1723 108.732 29.2806 108.649 29.3473C108.574 29.4056 108.47 29.4348 108.336 29.4348C108.211 29.4348 108.024 29.4139 107.774 29.3723C107.532 29.3306 107.295 29.3098 107.061 29.3098C106.72 29.3098 106.415 29.3598 106.149 29.4598C105.882 29.5598 105.64 29.7056 105.424 29.8973C105.215 30.0806 105.028 30.3056 104.861 30.5723C104.703 30.8389 104.553 31.1431 104.411 31.4848V39.3848H101.324V26.5598H103.136C103.453 26.5598 103.674 26.6181 103.799 26.7348C103.924 26.8431 104.007 27.0431 104.049 27.3348L104.236 28.7848ZM121.7 26.5598V39.3848H119.813C119.404 39.3848 119.146 39.1973 119.038 38.8223L118.825 37.7973C118.3 38.3306 117.721 38.7639 117.088 39.0973C116.454 39.4223 115.708 39.5848 114.85 39.5848C114.15 39.5848 113.529 39.4681 112.988 39.2348C112.454 38.9931 112.004 38.6556 111.638 38.2223C111.271 37.7889 110.992 37.2764 110.8 36.6848C110.617 36.0848 110.525 35.4264 110.525 34.7098V26.5598H113.613V34.7098C113.613 35.4931 113.792 36.1014 114.15 36.5348C114.517 36.9598 115.063 37.1723 115.788 37.1723C116.321 37.1723 116.821 37.0556 117.288 36.8223C117.754 36.5806 118.196 36.2514 118.613 35.8348V26.5598H121.7ZM129.449 32.6598C129.832 32.6598 130.165 32.6098 130.449 32.5098C130.732 32.4014 130.965 32.2556 131.149 32.0723C131.34 31.8889 131.482 31.6681 131.574 31.4098C131.674 31.1514 131.724 30.8681 131.724 30.5598C131.724 29.9264 131.532 29.4264 131.149 29.0598C130.774 28.6848 130.207 28.4973 129.449 28.4973C128.69 28.4973 128.12 28.6848 127.736 29.0598C127.361 29.4264 127.174 29.9264 127.174 30.5598C127.174 30.8598 127.22 31.1389 127.311 31.3973C127.411 31.6556 127.553 31.8806 127.736 32.0723C127.928 32.2556 128.165 32.4014 128.449 32.5098C128.74 32.6098 129.074 32.6598 129.449 32.6598ZM132.936 39.9598C132.936 39.7098 132.861 39.5056 132.711 39.3473C132.561 39.1889 132.357 39.0681 132.099 38.9848C131.84 38.8931 131.536 38.8264 131.186 38.7848C130.845 38.7431 130.478 38.7139 130.086 38.6973C129.703 38.6723 129.303 38.6514 128.886 38.6348C128.478 38.6181 128.078 38.5848 127.686 38.5348C127.345 38.7264 127.065 38.9514 126.849 39.2098C126.64 39.4681 126.536 39.7681 126.536 40.1098C126.536 40.3348 126.59 40.5431 126.699 40.7348C126.815 40.9348 126.995 41.1056 127.236 41.2473C127.486 41.3889 127.807 41.4973 128.199 41.5723C128.59 41.6556 129.07 41.6973 129.636 41.6973C130.211 41.6973 130.707 41.6514 131.124 41.5598C131.54 41.4764 131.882 41.3556 132.149 41.1973C132.424 41.0473 132.624 40.8639 132.749 40.6473C132.874 40.4389 132.936 40.2098 132.936 39.9598ZM136.011 26.9973V28.1473C136.011 28.5139 135.79 28.7389 135.349 28.8223L134.199 29.0348C134.374 29.4764 134.461 29.9598 134.461 30.4848C134.461 31.1181 134.332 31.6931 134.074 32.2098C133.824 32.7181 133.474 33.1514 133.024 33.5098C132.574 33.8681 132.04 34.1473 131.424 34.3473C130.815 34.5389 130.157 34.6348 129.449 34.6348C129.199 34.6348 128.957 34.6223 128.724 34.5973C128.49 34.5723 128.261 34.5389 128.036 34.4973C127.636 34.7389 127.436 35.0098 127.436 35.3098C127.436 35.5681 127.553 35.7598 127.786 35.8848C128.028 36.0014 128.345 36.0848 128.736 36.1348C129.128 36.1848 129.574 36.2181 130.074 36.2348C130.574 36.2431 131.086 36.2681 131.611 36.3098C132.136 36.3514 132.649 36.4264 133.149 36.5348C133.649 36.6348 134.095 36.7973 134.486 37.0223C134.878 37.2473 135.19 37.5556 135.424 37.9473C135.665 38.3306 135.786 38.8264 135.786 39.4348C135.786 40.0014 135.645 40.5514 135.361 41.0848C135.086 41.6181 134.682 42.0931 134.149 42.5098C133.624 42.9264 132.974 43.2598 132.199 43.5098C131.432 43.7681 130.557 43.8973 129.574 43.8973C128.607 43.8973 127.765 43.8014 127.049 43.6098C126.332 43.4264 125.736 43.1764 125.261 42.8598C124.786 42.5514 124.432 42.1931 124.199 41.7848C123.965 41.3764 123.849 40.9514 123.849 40.5098C123.849 39.9098 124.028 39.4098 124.386 39.0098C124.753 38.6014 125.253 38.2764 125.886 38.0348C125.545 37.8598 125.274 37.6264 125.074 37.3348C124.874 37.0431 124.774 36.6598 124.774 36.1848C124.774 35.9931 124.807 35.7973 124.874 35.5973C124.949 35.3889 125.053 35.1848 125.186 34.9848C125.328 34.7848 125.503 34.5973 125.711 34.4223C125.92 34.2389 126.165 34.0764 126.449 33.9348C125.799 33.5848 125.286 33.1181 124.911 32.5348C124.545 31.9514 124.361 31.2681 124.361 30.4848C124.361 29.8514 124.486 29.2806 124.736 28.7723C124.995 28.2556 125.349 27.8181 125.799 27.4598C126.257 27.0931 126.795 26.8139 127.411 26.6223C128.036 26.4306 128.715 26.3348 129.449 26.3348C129.999 26.3348 130.515 26.3931 130.999 26.5098C131.482 26.6181 131.924 26.7806 132.324 26.9973H136.011ZM145.794 29.0598C145.711 29.1931 145.624 29.2889 145.532 29.3473C145.44 29.3973 145.324 29.4223 145.182 29.4223C145.032 29.4223 144.869 29.3806 144.694 29.2973C144.528 29.2139 144.332 29.1223 144.107 29.0223C143.882 28.9139 143.624 28.8181 143.332 28.7348C143.049 28.6514 142.711 28.6098 142.319 28.6098C141.711 28.6098 141.232 28.7389 140.882 28.9973C140.54 29.2556 140.369 29.5931 140.369 30.0098C140.369 30.2848 140.457 30.5181 140.632 30.7098C140.815 30.8931 141.053 31.0556 141.344 31.1973C141.644 31.3389 141.982 31.4681 142.357 31.5848C142.732 31.6931 143.111 31.8139 143.494 31.9473C143.886 32.0806 144.269 32.2348 144.644 32.4098C145.019 32.5764 145.353 32.7931 145.644 33.0598C145.944 33.3181 146.182 33.6306 146.357 33.9973C146.54 34.3639 146.632 34.8056 146.632 35.3223C146.632 35.9389 146.519 36.5098 146.294 37.0348C146.078 37.5514 145.753 38.0014 145.319 38.3848C144.886 38.7598 144.349 39.0556 143.707 39.2723C143.074 39.4806 142.34 39.5848 141.507 39.5848C141.065 39.5848 140.632 39.5431 140.207 39.4598C139.79 39.3848 139.386 39.2764 138.994 39.1348C138.611 38.9931 138.253 38.8264 137.919 38.6348C137.594 38.4431 137.307 38.2348 137.057 38.0098L137.769 36.8348C137.861 36.6931 137.969 36.5848 138.094 36.5098C138.219 36.4348 138.378 36.3973 138.569 36.3973C138.761 36.3973 138.94 36.4514 139.107 36.5598C139.282 36.6681 139.482 36.7848 139.707 36.9098C139.932 37.0348 140.194 37.1514 140.494 37.2598C140.803 37.3681 141.19 37.4223 141.657 37.4223C142.024 37.4223 142.336 37.3806 142.594 37.2973C142.861 37.2056 143.078 37.0889 143.244 36.9473C143.419 36.8056 143.544 36.6431 143.619 36.4598C143.703 36.2681 143.744 36.0723 143.744 35.8723C143.744 35.5723 143.653 35.3264 143.469 35.1348C143.294 34.9431 143.057 34.7764 142.757 34.6348C142.465 34.4931 142.128 34.3681 141.744 34.2598C141.369 34.1431 140.982 34.0181 140.582 33.8848C140.19 33.7514 139.803 33.5973 139.419 33.4223C139.044 33.2389 138.707 33.0098 138.407 32.7348C138.115 32.4598 137.878 32.1223 137.694 31.7223C137.519 31.3223 137.432 30.8389 137.432 30.2723C137.432 29.7473 137.536 29.2473 137.744 28.7723C137.953 28.2973 138.257 27.8848 138.657 27.5348C139.065 27.1764 139.569 26.8931 140.169 26.6848C140.778 26.4681 141.478 26.3598 142.269 26.3598C143.153 26.3598 143.957 26.5056 144.682 26.7973C145.407 27.0889 146.011 27.4723 146.494 27.9473L145.794 29.0598ZM158.897 39.3848H155.522V21.3098H158.897V39.3848ZM165.149 28.1348C165.407 27.8764 165.678 27.6389 165.961 27.4223C166.253 27.1973 166.557 27.0098 166.874 26.8598C167.199 26.7014 167.545 26.5806 167.911 26.4973C168.278 26.4056 168.678 26.3598 169.111 26.3598C169.811 26.3598 170.432 26.4806 170.974 26.7223C171.515 26.9556 171.965 27.2889 172.324 27.7223C172.69 28.1473 172.965 28.6598 173.149 29.2598C173.34 29.8514 173.436 30.5056 173.436 31.2223V39.3848H170.349V31.2223C170.349 30.4389 170.17 29.8348 169.811 29.4098C169.453 28.9764 168.907 28.7598 168.174 28.7598C167.64 28.7598 167.14 28.8806 166.674 29.1223C166.207 29.3639 165.765 29.6931 165.349 30.1098V39.3848H162.261V26.5598H164.149C164.549 26.5598 164.811 26.7473 164.936 27.1223L165.149 28.1348ZM184.198 29.0598C184.114 29.1931 184.027 29.2889 183.935 29.3473C183.843 29.3973 183.727 29.4223 183.585 29.4223C183.435 29.4223 183.273 29.3806 183.098 29.2973C182.931 29.2139 182.735 29.1223 182.51 29.0223C182.285 28.9139 182.027 28.8181 181.735 28.7348C181.452 28.6514 181.114 28.6098 180.723 28.6098C180.114 28.6098 179.635 28.7389 179.285 28.9973C178.943 29.2556 178.773 29.5931 178.773 30.0098C178.773 30.2848 178.86 30.5181 179.035 30.7098C179.218 30.8931 179.456 31.0556 179.748 31.1973C180.048 31.3389 180.385 31.4681 180.76 31.5848C181.135 31.6931 181.514 31.8139 181.898 31.9473C182.289 32.0806 182.673 32.2348 183.048 32.4098C183.423 32.5764 183.756 32.7931 184.048 33.0598C184.348 33.3181 184.585 33.6306 184.76 33.9973C184.943 34.3639 185.035 34.8056 185.035 35.3223C185.035 35.9389 184.923 36.5098 184.698 37.0348C184.481 37.5514 184.156 38.0014 183.723 38.3848C183.289 38.7598 182.752 39.0556 182.11 39.2723C181.477 39.4806 180.743 39.5848 179.91 39.5848C179.468 39.5848 179.035 39.5431 178.61 39.4598C178.193 39.3848 177.789 39.2764 177.398 39.1348C177.014 38.9931 176.656 38.8264 176.323 38.6348C175.998 38.4431 175.71 38.2348 175.46 38.0098L176.173 36.8348C176.264 36.6931 176.373 36.5848 176.498 36.5098C176.623 36.4348 176.781 36.3973 176.973 36.3973C177.164 36.3973 177.343 36.4514 177.51 36.5598C177.685 36.6681 177.885 36.7848 178.11 36.9098C178.335 37.0348 178.598 37.1514 178.898 37.2598C179.206 37.3681 179.593 37.4223 180.06 37.4223C180.427 37.4223 180.739 37.3806 180.998 37.2973C181.264 37.2056 181.481 37.0889 181.648 36.9473C181.823 36.8056 181.948 36.6431 182.023 36.4598C182.106 36.2681 182.148 36.0723 182.148 35.8723C182.148 35.5723 182.056 35.3264 181.873 35.1348C181.698 34.9431 181.46 34.7764 181.16 34.6348C180.868 34.4931 180.531 34.3681 180.148 34.2598C179.773 34.1431 179.385 34.0181 178.985 33.8848C178.593 33.7514 178.206 33.5973 177.823 33.4223C177.448 33.2389 177.11 33.0098 176.81 32.7348C176.518 32.4598 176.281 32.1223 176.098 31.7223C175.923 31.3223 175.835 30.8389 175.835 30.2723C175.835 29.7473 175.939 29.2473 176.148 28.7723C176.356 28.2973 176.66 27.8848 177.06 27.5348C177.468 27.1764 177.973 26.8931 178.573 26.6848C179.181 26.4681 179.881 26.3598 180.673 26.3598C181.556 26.3598 182.36 26.5056 183.085 26.7973C183.81 27.0889 184.414 27.4723 184.898 27.9473L184.198 29.0598ZM190.446 36.0598C190.796 36.4848 191.176 36.7848 191.584 36.9598C192.001 37.1348 192.451 37.2223 192.934 37.2223C193.401 37.2223 193.821 37.1348 194.196 36.9598C194.571 36.7848 194.888 36.5181 195.146 36.1598C195.413 35.8014 195.617 35.3514 195.759 34.8098C195.901 34.2598 195.971 33.6139 195.971 32.8723C195.971 32.1223 195.909 31.4889 195.784 30.9723C195.667 30.4473 195.496 30.0223 195.271 29.6973C195.046 29.3723 194.771 29.1348 194.446 28.9848C194.13 28.8348 193.767 28.7598 193.359 28.7598C192.717 28.7598 192.171 28.8973 191.721 29.1723C191.271 29.4389 190.846 29.8181 190.446 30.3098V36.0598ZM190.284 28.3098C190.809 27.7181 191.405 27.2389 192.071 26.8723C192.738 26.5056 193.521 26.3223 194.421 26.3223C195.121 26.3223 195.759 26.4681 196.334 26.7598C196.917 27.0514 197.417 27.4764 197.834 28.0348C198.259 28.5848 198.584 29.2681 198.809 30.0848C199.042 30.8931 199.159 31.8223 199.159 32.8723C199.159 33.8306 199.03 34.7181 198.771 35.5348C198.513 36.3514 198.142 37.0598 197.659 37.6598C197.184 38.2598 196.605 38.7306 195.921 39.0723C195.246 39.4056 194.488 39.5723 193.646 39.5723C192.93 39.5723 192.317 39.4639 191.809 39.2473C191.301 39.0223 190.846 38.7139 190.446 38.3223V43.5723H187.359V26.5598H189.246C189.646 26.5598 189.909 26.7473 190.034 27.1223L190.284 28.3098ZM209.83 31.4973C209.83 31.0973 209.772 30.7223 209.655 30.3723C209.547 30.0139 209.38 29.7014 209.155 29.4348C208.93 29.1681 208.643 28.9598 208.293 28.8098C207.951 28.6514 207.551 28.5723 207.093 28.5723C206.201 28.5723 205.497 28.8264 204.98 29.3348C204.472 29.8431 204.147 30.5639 204.005 31.4973H209.83ZM203.943 33.3598C203.993 34.0181 204.11 34.5889 204.293 35.0723C204.476 35.5473 204.718 35.9431 205.018 36.2598C205.318 36.5681 205.672 36.8014 206.08 36.9598C206.497 37.1098 206.955 37.1848 207.455 37.1848C207.955 37.1848 208.385 37.1264 208.743 37.0098C209.11 36.8931 209.426 36.7639 209.693 36.6223C209.968 36.4806 210.205 36.3514 210.405 36.2348C210.614 36.1181 210.814 36.0598 211.005 36.0598C211.264 36.0598 211.455 36.1556 211.58 36.3473L212.468 37.4723C212.126 37.8723 211.743 38.2098 211.318 38.4848C210.893 38.7514 210.447 38.9681 209.98 39.1348C209.522 39.2931 209.051 39.4056 208.568 39.4723C208.093 39.5389 207.63 39.5723 207.18 39.5723C206.289 39.5723 205.46 39.4264 204.693 39.1348C203.926 38.8348 203.26 38.3973 202.693 37.8223C202.126 37.2389 201.68 36.5223 201.355 35.6723C201.03 34.8139 200.868 33.8223 200.868 32.6973C200.868 31.8223 201.01 31.0014 201.293 30.2348C201.576 29.4598 201.98 28.7889 202.505 28.2223C203.039 27.6473 203.685 27.1931 204.443 26.8598C205.21 26.5264 206.072 26.3598 207.03 26.3598C207.839 26.3598 208.585 26.4889 209.268 26.7473C209.951 27.0056 210.539 27.3848 211.03 27.8848C211.522 28.3764 211.905 28.9848 212.18 29.7098C212.464 30.4264 212.605 31.2473 212.605 32.1723C212.605 32.6389 212.555 32.9556 212.455 33.1223C212.355 33.2806 212.164 33.3598 211.88 33.3598H203.943ZM224.11 29.2723C224.018 29.3889 223.927 29.4806 223.835 29.5473C223.752 29.6139 223.627 29.6473 223.46 29.6473C223.302 29.6473 223.147 29.6014 222.997 29.5098C222.847 29.4098 222.668 29.3014 222.46 29.1848C222.252 29.0598 222.002 28.9514 221.71 28.8598C221.427 28.7598 221.072 28.7098 220.647 28.7098C220.106 28.7098 219.631 28.8098 219.222 29.0098C218.814 29.2014 218.472 29.4806 218.197 29.8473C217.931 30.2139 217.731 30.6598 217.597 31.1848C217.464 31.7014 217.397 32.2889 217.397 32.9473C217.397 33.6306 217.468 34.2389 217.61 34.7723C217.76 35.3056 217.972 35.7556 218.247 36.1223C218.522 36.4806 218.856 36.7556 219.247 36.9473C219.639 37.1306 220.081 37.2223 220.572 37.2223C221.064 37.2223 221.46 37.1639 221.76 37.0473C222.068 36.9223 222.327 36.7889 222.535 36.6473C222.743 36.4973 222.922 36.3639 223.072 36.2473C223.231 36.1223 223.406 36.0598 223.597 36.0598C223.847 36.0598 224.035 36.1556 224.16 36.3473L225.047 37.4723C224.706 37.8723 224.335 38.2098 223.935 38.4848C223.535 38.7514 223.118 38.9681 222.685 39.1348C222.26 39.2931 221.818 39.4056 221.36 39.4723C220.91 39.5389 220.46 39.5723 220.01 39.5723C219.218 39.5723 218.472 39.4264 217.772 39.1348C217.072 38.8348 216.46 38.4014 215.935 37.8348C215.41 37.2681 214.993 36.5764 214.685 35.7598C214.385 34.9348 214.235 33.9973 214.235 32.9473C214.235 32.0056 214.368 31.1348 214.635 30.3348C214.91 29.5264 215.31 28.8306 215.835 28.2473C216.36 27.6556 217.01 27.1931 217.785 26.8598C218.56 26.5264 219.452 26.3598 220.46 26.3598C221.418 26.3598 222.256 26.5139 222.972 26.8223C223.697 27.1306 224.347 27.5723 224.922 28.1473L224.11 29.2723ZM239.921 39.3848H236.833V28.8723H230.883V35.8223C230.883 36.2223 230.979 36.5348 231.171 36.7598C231.371 36.9848 231.641 37.0973 231.983 37.0973C232.175 37.0973 232.333 37.0764 232.458 37.0348C232.591 36.9848 232.704 36.9348 232.796 36.8848C232.896 36.8348 232.983 36.7889 233.058 36.7473C233.133 36.6973 233.208 36.6723 233.283 36.6723C233.375 36.6723 233.45 36.6973 233.508 36.7473C233.566 36.7889 233.629 36.8556 233.696 36.9473L234.621 38.4473C234.171 38.8223 233.654 39.1056 233.071 39.2973C232.487 39.4889 231.883 39.5848 231.258 39.5848C230.141 39.5848 229.283 39.2723 228.683 38.6473C228.091 38.0139 227.796 37.1431 227.796 36.0348V28.8723H226.483C226.316 28.8723 226.175 28.8181 226.058 28.7098C225.941 28.6014 225.883 28.4389 225.883 28.2223V26.9973L227.946 26.6473L228.596 23.1598C228.637 22.9931 228.716 22.8639 228.833 22.7723C228.95 22.6806 229.1 22.6348 229.283 22.6348H230.883V26.6723H239.921V39.3848ZM240.458 22.7723C240.458 23.0389 240.404 23.2931 240.296 23.5348C240.187 23.7681 240.041 23.9723 239.858 24.1473C239.683 24.3223 239.471 24.4639 239.221 24.5723C238.979 24.6723 238.721 24.7223 238.446 24.7223C238.179 24.7223 237.929 24.6723 237.696 24.5723C237.462 24.4639 237.258 24.3223 237.083 24.1473C236.908 23.9723 236.766 23.7681 236.658 23.5348C236.558 23.2931 236.508 23.0389 236.508 22.7723C236.508 22.4973 236.558 22.2431 236.658 22.0098C236.766 21.7681 236.908 21.5598 237.083 21.3848C237.258 21.2014 237.462 21.0598 237.696 20.9598C237.929 20.8514 238.179 20.7973 238.446 20.7973C238.721 20.7973 238.979 20.8514 239.221 20.9598C239.471 21.0598 239.683 21.2014 239.858 21.3848C240.041 21.5598 240.187 21.7681 240.296 22.0098C240.404 22.2431 240.458 22.4973 240.458 22.7723ZM248.747 26.3598C249.697 26.3598 250.559 26.5139 251.334 26.8223C252.118 27.1306 252.784 27.5681 253.334 28.1348C253.893 28.7014 254.322 29.3931 254.622 30.2098C254.922 31.0264 255.072 31.9389 255.072 32.9473C255.072 33.9639 254.922 34.8806 254.622 35.6973C254.322 36.5139 253.893 37.2098 253.334 37.7848C252.784 38.3598 252.118 38.8014 251.334 39.1098C250.559 39.4181 249.697 39.5723 248.747 39.5723C247.789 39.5723 246.918 39.4181 246.134 39.1098C245.351 38.8014 244.68 38.3598 244.122 37.7848C243.572 37.2098 243.143 36.5139 242.834 35.6973C242.534 34.8806 242.384 33.9639 242.384 32.9473C242.384 31.9389 242.534 31.0264 242.834 30.2098C243.143 29.3931 243.572 28.7014 244.122 28.1348C244.68 27.5681 245.351 27.1306 246.134 26.8223C246.918 26.5139 247.789 26.3598 248.747 26.3598ZM248.747 37.1973C249.814 37.1973 250.601 36.8389 251.109 36.1223C251.626 35.4056 251.884 34.3556 251.884 32.9723C251.884 31.5889 251.626 30.5348 251.109 29.8098C250.601 29.0848 249.814 28.7223 248.747 28.7223C247.664 28.7223 246.859 29.0889 246.334 29.8223C245.818 30.5473 245.559 31.5973 245.559 32.9723C245.559 34.3473 245.818 35.3973 246.334 36.1223C246.859 36.8389 247.664 37.1973 248.747 37.1973ZM260.315 28.1348C260.573 27.8764 260.844 27.6389 261.127 27.4223C261.419 27.1973 261.723 27.0098 262.04 26.8598C262.365 26.7014 262.711 26.5806 263.077 26.4973C263.444 26.4056 263.844 26.3598 264.277 26.3598C264.977 26.3598 265.598 26.4806 266.14 26.7223C266.682 26.9556 267.132 27.2889 267.49 27.7223C267.857 28.1473 268.132 28.6598 268.315 29.2598C268.507 29.8514 268.602 30.5056 268.602 31.2223V39.3848H265.515V31.2223C265.515 30.4389 265.336 29.8348 264.977 29.4098C264.619 28.9764 264.073 28.7598 263.34 28.7598C262.807 28.7598 262.307 28.8806 261.84 29.1223C261.373 29.3639 260.932 29.6931 260.515 30.1098V39.3848H257.427V26.5598H259.315C259.715 26.5598 259.977 26.7473 260.102 27.1223L260.315 28.1348ZM279.364 29.0598C279.28 29.1931 279.193 29.2889 279.101 29.3473C279.01 29.3973 278.893 29.4223 278.751 29.4223C278.601 29.4223 278.439 29.3806 278.264 29.2973C278.097 29.2139 277.901 29.1223 277.676 29.0223C277.451 28.9139 277.193 28.8181 276.901 28.7348C276.618 28.6514 276.28 28.6098 275.889 28.6098C275.28 28.6098 274.801 28.7389 274.451 28.9973C274.11 29.2556 273.939 29.5931 273.939 30.0098C273.939 30.2848 274.026 30.5181 274.201 30.7098C274.385 30.8931 274.622 31.0556 274.914 31.1973C275.214 31.3389 275.551 31.4681 275.926 31.5848C276.301 31.6931 276.68 31.8139 277.064 31.9473C277.455 32.0806 277.839 32.2348 278.214 32.4098C278.589 32.5764 278.922 32.7931 279.214 33.0598C279.514 33.3181 279.751 33.6306 279.926 33.9973C280.11 34.3639 280.201 34.8056 280.201 35.3223C280.201 35.9389 280.089 36.5098 279.864 37.0348C279.647 37.5514 279.322 38.0014 278.889 38.3848C278.455 38.7598 277.918 39.0556 277.276 39.2723C276.643 39.4806 275.91 39.5848 275.076 39.5848C274.635 39.5848 274.201 39.5431 273.776 39.4598C273.36 39.3848 272.955 39.2764 272.564 39.1348C272.18 38.9931 271.822 38.8264 271.489 38.6348C271.164 38.4431 270.876 38.2348 270.626 38.0098L271.339 36.8348C271.43 36.6931 271.539 36.5848 271.664 36.5098C271.789 36.4348 271.947 36.3973 272.139 36.3973C272.33 36.3973 272.51 36.4514 272.676 36.5598C272.851 36.6681 273.051 36.7848 273.276 36.9098C273.501 37.0348 273.764 37.1514 274.064 37.2598C274.372 37.3681 274.76 37.4223 275.226 37.4223C275.593 37.4223 275.905 37.3806 276.164 37.2973C276.43 37.2056 276.647 37.0889 276.814 36.9473C276.989 36.8056 277.114 36.6431 277.189 36.4598C277.272 36.2681 277.314 36.0723 277.314 35.8723C277.314 35.5723 277.222 35.3264 277.039 35.1348C276.864 34.9431 276.626 34.7764 276.326 34.6348C276.035 34.4931 275.697 34.3681 275.314 34.2598C274.939 34.1431 274.551 34.0181 274.151 33.8848C273.76 33.7514 273.372 33.5973 272.989 33.4223C272.614 33.2389 272.276 33.0098 271.976 32.7348C271.685 32.4598 271.447 32.1223 271.264 31.7223C271.089 31.3223 271.001 30.8389 271.001 30.2723C271.001 29.7473 271.105 29.2473 271.314 28.7723C271.522 28.2973 271.826 27.8848 272.226 27.5348C272.635 27.1764 273.139 26.8931 273.739 26.6848C274.347 26.4681 275.047 26.3598 275.839 26.3598C276.722 26.3598 277.526 26.5056 278.251 26.7973C278.976 27.0889 279.58 27.4723 280.064 27.9473L279.364 29.0598Z" fill="white"/>
</svg>
